<svg width="32" height="32" viewBox="0 0 32 32" fill="none" xmlns="http://www.w3.org/2000/svg">
  <defs><linearGradient id="silver" x1="5" y1="4" x2="27" y2="29" gradientUnits="userSpaceOnUse"><stop stop-color="#F8F9F8"/><stop offset=".48" stop-color="#B8C0C6"/><stop offset="1" stop-color="#707B84"/></linearGradient></defs>
  <rect width="32" height="32" rx="8" fill="#14191F"/>
  <path d="M14.9 3.8C7.2 6.7 3.5 15.7 6.2 23.3c2.1 5.9 7.7 8.6 13.1 7.2-4.5-1.3-7.7-5.5-7.7-10.4 0-5.7 4.3-10.4 9.8-10.8-1.8-2.8-4-4.7-6.5-5.5Z" fill="url(#silver)"/>
  <path d="M16.3 21.4c-3.4-3.3-5.5-1.5-5 1.9.5 3.4 2.9 5.2 5 5.9Z" fill="#CDD3D7"/>
  <path d="M16.3 29.2c2.6-1.7 3.6-5.2.8-9.6-2.9 3.2-3.7 6.5-.8 9.6Z" fill="#FFFFFF"/>
  <path d="M16.4 29.2c2.6-.4 5.3-2.7 5.4-6.8-3.8 0-5.5 3-5.4 6.8Z" fill="#9DA7AF"/>
  <path d="M16.3 28V31" stroke="#2563EB" stroke-width="1.2" stroke-linecap="round"/>
</svg>
